<svg width="437" height="437" viewBox="0 0 437 437" fill="none" xmlns="http://www.w3.org/2000/svg">
<path d="M218.5 0L389.33 82.2675L431.522 267.121L313.304 415.362H123.696L5.47826 267.121L47.6698 82.2675L218.5 0Z" fill="#1A1E22"/>
<path d="M206.76 199.872C199.08 199.872 195.24 196.032 195.24 188.352V157.248C195.24 149.568 191.4 145.728 183.72 145.728H145.128C137.448 145.728 133.608 149.568 133.608 157.248V288.864C133.608 296.544 137.448 300.384 145.128 300.384H183.72C191.4 300.384 195.24 296.544 195.24 288.864V260.64C195.24 252.96 199.08 249.12 206.76 249.12H209.928C217.608 249.12 221.448 252.96 221.448 260.64V297.216C221.448 302.784 219.528 307.488 215.688 311.328L206.184 320.832C202.344 324.672 197.64 326.592 192.072 326.592H136.776C131.208 326.592 126.504 324.672 122.664 320.832L113.16 311.328C109.32 307.488 107.4 302.784 107.4 297.216V148.896C107.4 143.328 109.32 138.624 113.16 134.784L122.664 125.28C126.504 121.44 131.208 119.52 136.776 119.52H192.072C197.64 119.52 202.344 121.44 206.184 125.28L215.688 134.784C219.528 138.624 221.448 143.328 221.448 148.896V188.352C221.448 196.032 217.608 199.872 209.928 199.872H206.76ZM232.995 131.04C232.995 123.36 236.835 119.52 244.515 119.52H335.523C343.203 119.52 347.043 123.36 347.043 131.04V134.208C347.043 141.888 343.203 145.728 335.523 145.728H314.787C307.107 145.728 303.267 149.568 303.267 157.248V314.784C303.267 322.464 299.427 326.304 291.747 326.304H288.579C280.899 326.304 277.059 322.464 277.059 314.784V157.248C277.059 149.568 273.219 145.728 265.539 145.728H244.515C236.835 145.728 232.995 141.888 232.995 134.208V131.04Z" fill="#65CACA"/>
</svg>
